<svg xmlns="http://www.w3.org/2000/svg" viewBox="0 0 32 32">
  <rect width="32" height="32" rx="8" fill="#08080d"/>
  <!-- film strip body -->
  <rect x="5" y="11" width="22" height="10" rx="2" fill="#a78bfa"/>
  <!-- sprocket holes left -->
  <rect x="3" y="13" width="3" height="2" rx="1" fill="#2d1b6b"/>
  <rect x="3" y="17" width="3" height="2" rx="1" fill="#2d1b6b"/>
  <!-- sprocket holes right -->
  <rect x="26" y="13" width="3" height="2" rx="1" fill="#2d1b6b"/>
  <rect x="26" y="17" width="3" height="2" rx="1" fill="#2d1b6b"/>
  <!-- top perf -->
  <rect x="9"  y="9" width="2" height="3" rx="1" fill="#c4b5fd"/>
  <rect x="15" y="9" width="2" height="3" rx="1" fill="#c4b5fd"/>
  <rect x="21" y="9" width="2" height="3" rx="1" fill="#c4b5fd"/>
  <!-- bottom perf -->
  <rect x="9"  y="20" width="2" height="3" rx="1" fill="#c4b5fd"/>
  <rect x="15" y="20" width="2" height="3" rx="1" fill="#c4b5fd"/>
  <rect x="21" y="20" width="2" height="3" rx="1" fill="#c4b5fd"/>
  <!-- play triangle -->
  <polygon points="13,13.5 13,18.5 20,16" fill="white"/>
</svg>
